<?xml version="1.0" encoding="UTF-8" standalone="no"?><!DOCTYPE svg PUBLIC "-//W3C//DTD SVG 1.1//EN" "http://www.w3.org/Graphics/SVG/1.1/DTD/svg11.dtd">
<svg width="100%" height="100%" viewBox="0 0 314 283" version="1.1"
  xmlns="http://www.w3.org/2000/svg"
  xmlns:xlink="http://www.w3.org/1999/xlink" xml:space="preserve"
  xmlns:serif="http://www.serif.com/" style="fill-rule:evenodd;clip-rule:evenodd;stroke-linejoin:round;stroke-miterlimit:2;">
  <g>
    <path d="M47.723,80.825c17.943,0 32.541,14.598 32.541,32.541l14.686,0c0,-26.041 -21.186,-47.227 -47.227,-47.227c-26.041,0 -47.227,21.186 -47.227,47.227c0,26.041 20.33,41.139 46.552,46.889c19.412,4.257 33.216,14.936 33.216,32.879c0,17.942 -14.598,32.54 -32.541,32.54c-17.943,0 -32.541,-14.598 -32.541,-32.54l-14.686,0c0,26.04 21.186,47.226 47.227,47.226c26.041,0 47.227,-21.186 47.227,-47.226c0,-26.041 -19.909,-41.505 -45.314,-47.227c-16.244,-3.659 -34.454,-14.598 -34.454,-32.541c0,-17.943 14.598,-32.541 32.541,-32.541" style="fill:#fff;fill-rule:nonzero;"/>
    <path d="M156.863,66.139c-26.041,0 -47.227,21.186 -47.227,47.227l0,127.06l14.686,0l0,-92.864c8.477,8.07 19.941,13.031 32.541,13.031c26.041,0 47.227,-21.186 47.227,-47.227c0,-26.041 -21.186,-47.227 -47.227,-47.227m0,79.768c-17.943,0 -32.541,-14.598 -32.541,-32.541c0,-17.943 14.598,-32.541 32.541,-32.541c17.943,0 32.541,14.598 32.541,32.541c0,17.943 -14.598,32.541 -32.541,32.541" style="fill:#fff;fill-rule:nonzero;"/>
    <path d="M266.003,66.139c-26.041,0 -47.227,21.186 -47.227,47.227l0,127.06l14.686,0l0,-53.056c8.477,8.07 19.941,13.031 32.541,13.031c12.6,0 24.064,-4.961 32.541,-13.031l0,53.056l14.686,0l0,-127.06c0,-26.041 -21.186,-47.227 -47.227,-47.227m0,119.238c-17.943,0 -32.541,-13.698 -32.541,-31.64l0,-40.034c0,-17.943 14.598,-32.54 32.541,-32.54c17.943,0 32.541,14.597 32.541,32.54l0,40.034c0,17.942 -14.598,31.64 -32.541,31.64" style="fill:#fff;fill-rule:nonzero;"/>
    <path d="M149.081,51.436l0,-31.527c0,-1.76 0.074,-4.326 0.147,-5.646c-0.586,1.687 -1.54,4.033 -2.273,5.793l-14.077,32.26l-13.638,-32.407c-0.659,-1.613 -1.613,-3.886 -2.199,-5.572c0.147,1.319 0.22,3.812 0.22,5.572l0,31.527l-6.379,0l0,-51.324l6.012,0l14.884,34.534l1.319,3.446c0.367,-1.1 0.88,-2.347 1.321,-3.446l14.957,-34.534l6.085,0l0,51.324l-6.379,0Z" style="fill:#fff;fill-rule:nonzero;"/>
    <path d="M182.062,31.273l-17.449,-31.161l7.184,0l13.418,24.929l13.563,-24.929l6.967,0l-17.304,31.014l0,20.31l-6.379,0l0,-20.163Z" style="fill:#fff;fill-rule:nonzero;"/>
    <path d="M7.406,267.866l-7.181,-12.822l2.957,0l5.521,10.258l5.581,-10.258l2.867,0l-7.121,12.762l0,8.357l-2.624,0l0,-8.297Z" style="fill:#fff;fill-rule:nonzero;"/>
    <path d="M17.664,268.469c0,-5.069 2.686,-8.086 6.819,-8.086c4.133,0 6.818,2.957 6.818,8.056c0,5.069 -2.685,8.086 -6.818,8.086c-4.133,0 -6.819,-2.957 -6.819,-8.056m10.982,-0.03c0,-3.5 -1.538,-5.642 -4.163,-5.642c-2.625,0 -4.164,2.082 -4.164,5.672c0,3.5 1.539,5.612 4.164,5.612c2.594,0 4.163,-2.112 4.163,-5.642" style="fill:#fff;fill-rule:nonzero;"/>
    <path d="M44.756,274.685c-1.026,1.328 -2.262,1.84 -3.892,1.84c-3.62,0 -5.611,-1.931 -5.611,-6.879l0,-8.9l2.624,0l0,9.292c0,2.927 1.418,4.044 3.319,4.044c2.022,0 3.56,-0.966 3.56,-3.983l0,-9.353l2.625,0l0,15.417l-2.625,0l0,-1.478Z" style="fill:#fff;fill-rule:nonzero;"/>
    <path d="M52.388,260.746l2.624,0l0,2.022c0.906,-1.63 2.294,-2.384 3.772,-2.384c0.875,0 1.69,0.272 2.263,0.785l-0.393,2.473c-0.482,-0.331 -1.146,-0.663 -2.202,-0.663c-1.387,0 -3.44,0.995 -3.44,4.495l0,8.689l-2.624,0l0,-15.417Z" style="fill:#fff;fill-rule:nonzero;"/>
    <path d="M73.869,274.715l0,6.305l-2.625,1.238l0,-21.512l2.625,0l0,1.297c0.905,-0.905 2.021,-1.659 3.952,-1.659c3.922,0 6.366,3.108 6.366,8.056c0,5.129 -2.625,8.085 -6.366,8.085c-1.991,0 -3.138,-0.845 -3.952,-1.81m7.633,-6.275c0,-3.35 -1.479,-5.642 -4.012,-5.642c-1.57,0 -2.867,0.754 -3.621,2.081l0,7.121c0.875,1.146 2.051,2.082 3.621,2.082c2.564,0 4.012,-1.992 4.012,-5.642" style="fill:#fff;fill-rule:nonzero;"/>
    <path d="M87.354,268.439c0,-5.099 2.746,-8.056 6.849,-8.056c3.47,0 6.366,2.263 6.366,7.332c0,0.483 -0.03,1.146 -0.091,1.75l-10.439,0c0.211,2.836 1.901,4.676 4.224,4.676c1.177,0 2.353,-0.422 3.319,-1.388l1.599,1.78c-1.146,1.147 -2.897,1.992 -4.978,1.992c-4.224,0 -6.849,-3.379 -6.849,-8.086m10.56,-1.207c-0.03,-3.5 -2.082,-4.525 -3.711,-4.525c-2.233,0 -4.043,1.357 -4.194,4.525l7.905,0Z" style="fill:#fff;fill-rule:nonzero;"/>
    <path d="M104.49,260.746l2.624,0l0,2.022c0.906,-1.63 2.294,-2.384 3.772,-2.384c0.875,0 1.69,0.272 2.263,0.785l-0.393,2.473c-0.482,-0.331 -1.146,-0.663 -2.202,-0.663c-1.387,0 -3.44,0.995 -3.44,4.495l0,8.689l-2.624,0l0,-15.417Z" style="fill:#fff;fill-rule:nonzero;"/>
    <path d="M115.38,273.93l1.871,-1.599c0.784,0.845 2.111,1.84 3.771,1.84c1.629,0 2.866,-0.603 2.866,-1.961c0,-1.538 -1.72,-2.232 -3.529,-2.926c-2.837,-1.056 -4.768,-2.293 -4.768,-4.828c0,-2.534 2.233,-4.073 5.19,-4.073c2.353,0 4.073,0.996 5.189,2.324l-1.81,1.508c-0.664,-0.694 -1.75,-1.478 -3.409,-1.478c-1.569,0 -2.565,0.633 -2.565,1.719c0,1.298 1.539,1.871 3.258,2.565c2.806,0.996 5.009,2.202 5.009,5.129c0,2.776 -2.143,4.375 -5.492,4.375c-2.262,0 -4.374,-1.056 -5.581,-2.595" style="fill:#fff;fill-rule:nonzero;"/>
    <path d="M129.65,268.469c0,-5.069 2.685,-8.086 6.819,-8.086c4.133,0 6.818,2.957 6.818,8.056c0,5.069 -2.685,8.086 -6.818,8.086c-4.134,0 -6.819,-2.957 -6.819,-8.056m10.982,-0.03c0,-3.5 -1.539,-5.642 -4.163,-5.642c-2.625,0 -4.164,2.082 -4.164,5.672c0,3.5 1.539,5.612 4.164,5.612c2.594,0 4.163,-2.112 4.163,-5.642" style="fill:#fff;fill-rule:nonzero;"/>
    <path d="M156.893,266.841c0,-2.928 -1.418,-4.043 -3.318,-4.043c-2.022,0 -3.56,0.995 -3.56,3.981l0,9.385l-2.625,0l0,-15.418l2.625,0l0,1.569c0.965,-1.327 2.323,-1.931 3.982,-1.931c3.5,0 5.521,1.93 5.521,6.909l0,8.87l-2.625,0l0,-9.322Z" style="fill:#fff;fill-rule:nonzero;"/>
    <path d="M173.215,274.745c-1.026,0.965 -2.534,1.78 -4.375,1.78c-3.137,0 -5.37,-1.75 -5.37,-5.189c0,-3.56 2.775,-5.099 5.762,-5.099c1.358,0 2.716,0.272 3.983,0.996l0,-1.086c0,-2.716 -1.358,-3.47 -3.349,-3.47c-1.72,0 -3.349,0.724 -4.495,1.539l-0.754,-2.203c1.236,-0.814 3.258,-1.629 5.581,-1.629c2.414,0 5.491,0.815 5.491,5.551l0,10.228l-2.474,0l0,-1.418Zm0,-2.564l0,-2.655c-0.935,-0.574 -2.353,-1.026 -3.621,-1.026c-1.991,0 -3.65,0.875 -3.65,2.836c0,1.719 1.176,2.866 3.288,2.866c1.72,0 3.108,-0.996 3.983,-2.021" style="fill:#fff;fill-rule:nonzero;"/>
    <path d="M180.394,255.617l2.625,-1.237l0,21.783l-2.625,0l0,-20.546Z" style="fill:#fff;fill-rule:nonzero;"/>
    <path d="M193.488,255.044l2.746,0l2.595,13.758c0.18,0.935 0.301,1.629 0.392,2.263c0.12,-0.634 0.332,-1.298 0.573,-2.233l3.741,-13.788l2.082,0l3.771,13.758c0.241,0.875 0.393,1.478 0.483,2.051c0.09,-0.573 0.211,-1.206 0.392,-2.081l2.866,-13.728l2.686,0l-4.586,21.119l-2.082,0l-4.074,-14.421c-0.241,-0.875 -0.422,-1.479 -0.542,-2.082c-0.121,0.603 -0.272,1.207 -0.513,2.082l-4.073,14.421l-2.143,0l-4.314,-21.119Z" style="fill:#fff;fill-rule:nonzero;"/>
    <path d="M218.92,268.439c0,-5.099 2.746,-8.056 6.849,-8.056c3.47,0 6.366,2.263 6.366,7.332c0,0.483 -0.031,1.146 -0.091,1.75l-10.438,0c0.21,2.836 1.9,4.676 4.223,4.676c1.177,0 2.353,-0.422 3.319,-1.388l1.599,1.78c-1.146,1.147 -2.897,1.992 -4.978,1.992c-4.224,0 -6.849,-3.379 -6.849,-8.086m10.56,-1.207c-0.031,-3.5 -2.082,-4.525 -3.711,-4.525c-2.232,0 -4.043,1.357 -4.194,4.525l7.905,0Z" style="fill:#fff;fill-rule:nonzero;"/>
    <path d="M236.207,255.617l2.625,-1.237l0,21.783l-2.625,0l0,-20.546Z" style="fill:#fff;fill-rule:nonzero;"/>
    <path d="M244.112,255.617l2.625,-1.237l0,21.783l-2.625,0l0,-20.546Z" style="fill:#fff;fill-rule:nonzero;"/>
    <path d="M251.534,274.232l8.025,-11.163l-7.422,0l0,-2.323l10.71,0l0,1.87l-8.055,11.194l8.026,0l0,2.353l-11.284,0l0,-1.931Z" style="fill:#fff;fill-rule:nonzero;"/>
    <path d="M266.195,268.469c0,-5.069 2.685,-8.086 6.819,-8.086c4.133,0 6.818,2.957 6.818,8.056c0,5.069 -2.685,8.086 -6.818,8.086c-4.134,0 -6.819,-2.957 -6.819,-8.056m10.982,-0.03c0,-3.5 -1.539,-5.642 -4.163,-5.642c-2.625,0 -4.164,2.082 -4.164,5.672c0,3.5 1.539,5.612 4.164,5.612c2.594,0 4.163,-2.112 4.163,-5.642" style="fill:#fff;fill-rule:nonzero;"/>
    <path d="M293.438,266.841c0,-2.928 -1.418,-4.043 -3.318,-4.043c-2.022,0 -3.56,0.995 -3.56,3.981l0,9.385l-2.625,0l0,-15.418l2.625,0l0,1.569c0.965,-1.327 2.323,-1.931 3.982,-1.931c3.5,0 5.521,1.93 5.521,6.909l0,8.87l-2.625,0l0,-9.322Z" style="fill:#fff;fill-rule:nonzero;"/>
    <path d="M300.015,268.439c0,-5.099 2.746,-8.056 6.849,-8.056c3.47,0 6.366,2.263 6.366,7.332c0,0.483 -0.03,1.146 -0.091,1.75l-10.439,0c0.211,2.836 1.901,4.676 4.224,4.676c1.177,0 2.353,-0.422 3.319,-1.388l1.599,1.78c-1.146,1.147 -2.896,1.992 -4.978,1.992c-4.224,0 -6.849,-3.379 -6.849,-8.086m10.56,-1.207c-0.03,-3.5 -2.082,-4.525 -3.711,-4.525c-2.233,0 -4.043,1.357 -4.194,4.525l7.905,0Z" style="fill:#fff;fill-rule:nonzero;"/>
  </g>
</svg>