<?xml version="1.0" standalone="no"?>
<!DOCTYPE svg PUBLIC "-//W3C//DTD SVG 1.1//EN" "http://www.w3.org/Graphics/SVG/1.1/DTD/svg11.dtd">
<svg xmlns="http://www.w3.org/2000/svg">
<metadata>Generated by Fontastic.me</metadata>
<defs>
<font id="myspa-wellzone" horiz-adv-x="512">
<font-face font-family="myspa-wellzone" units-per-em="512" ascent="480" descent="-32"/>
<missing-glyph horiz-adv-x="512" />

<glyph glyph-name="quote" unicode="&#97;" d="M393 451c60-1 111-51 117-117 0-1 1-29-1-48-8-51-36-99-73-137 0 0-27-24-53-42-24-18-47-49-75-44-7 1-15 9-15 9-4 4-3 4-3 4-7 15-4 11-1 18 0 0 21 20 41 36 8 6 15 11 23 17 3 2 5 4 7 6 30 23 58 53 59 89 0 0 8 21-33 16-39-4-79 24-89 63 0 0-4 14-4 28 0 3 0 2 0 5 0 18 4 37 14 53 0 0 8 11 8 11 19 23 49 33 78 33z m-293 0c44 0 85-25 104-64 41-83 0-191-76-252-30-24-62-47-94-65-12-6-29 1-33 15 0 0-1 10-1 10 3 11 9 12 14 16 40 34 95 56 111 115 0 3 1 5 1 7 6 33-18 19-56 27-61 13-95 99-46 159 18 22 47 32 76 32z m308-174c11 0 23-13 23-13 8-16 5-25 4-34-3-16-15-37-15-37-6-10-14-19-22-28-27-30-68-47-94-79 0 0 5-9 13-4 36 21 70 46 101 74 0 0 53 60 65 96 9 24 12 50 10 75 0 0-9 88-75 105-38 9-85-4-101-43-19-45-1-110 58-114 11-1 22 2 33 2z m-310 158c-39-1-78-31-80-77-2-40 24-82 68-83 20-1 46 10 55-15 0 0 2-27 2-27-6-41-39-75-69-97-19-14-42-27-57-45 0 0 2-10 16-2 55 34 112 72 144 131 39 71 42 180-44 209-12 4-23 6-35 6z m206-349c0 1 0 0 0 0z m-288 4c0 0 0 0 0 0z"/>
<glyph glyph-name="sauna" unicode="&#98;" d="M225 504c49-1 75-82 22-106-28-13-67 4-76 36-9 33 19 70 54 70z m-1-24c-30 0-44-62 0-63 31 0 46 63 0 63z m-25-107c25-1 44-24 44-49l0-105c48 0 104 13 127-23 19-30 36-62 53-93 15-27 15-71-29-71-16 0-33 10-42 24l-43 76c-53 0-53 1-106 0-8 0-17 0-25 0-4 0-8 0-8 0l-20 23c-2 6-2 12-2 18 0 52-5 105 0 156 3 24 26 44 51 44z m-2-24c-13 0-25-11-25-25-1-52-5-105 0-157 0 0 9-11 9-11l22 0c53 0 53 0 106 0 0 0 14-2 20-12 24-42 45-102 78-84 9 4 2 21-7 36-18 31-30 69-54 93-5 4-10 6-16 6l-87 0c-13 0-23 8-24 24 0 37 7 77-1 112-2 10-9 18-21 18z m113-46c2-5 5-7 8-7 2 0 4 0 5 2 5 4 6 13 3 20-2 5-1 13 1 24 2 13 5 28-1 42-2 7-8 9-13 5-5-4-6-13-3-20 1-4 0-12-2-19-2-14-5-31 2-47z m58 36c2-5 5-7 8-7 2 0 4 1 5 2 5 4 6 14 3 21-2 5-1 12 1 24 2 12 5 27-1 41-2 7-8 10-13 5-5-4-6-13-3-20 1-3 0-11-2-19-2-14-5-31 2-47z m59-36c2-5 5-7 8-7 2 0 3 0 5 2 5 4 6 13 3 20-2 5-1 13 1 24 2 13 5 28-1 42-2 7-8 9-13 5-5-4-6-13-3-20 1-4 0-12-2-19-2-14-5-31 2-47z m-314-184l-28 0c-9 0-9 4-11 8-3 7 2 15 11 16 80 0 160 3 240 0 22-3 9-23-2-24l-43 0c1-33 0-66 0-99-1-12-23-17-24-1-1 33 0 67 0 100l-119 0c1-33 0-66 0-99 0-12-22-18-24-1-1 33 0 67 0 100z"/>
<glyph glyph-name="shower" unicode="&#100;" d="M215 411c0 27 5 57 28 73 39 26 89 14 143 14 27 0 56 1 74-19 17-20 17-48 17-72l0-402-27 0c0 135 1 270 0 406-1 33-8 59-64 60-64 0-141 29-144-60 13 0 26 0 39 0 8 0 16 0 23-1 6 0 12 0 17 0 4-1 8-1 12-1 32-4 68-21 76-56 6-26 4-53 4-53l-369 0c0 33 0 70 25 90 39 32 89 22 146 21z m-82-243c24-35 54-78 31-114-28-44-136-26-90 66 8 17 18 33 28 48l16 22c5-7 10-15 15-22z m-16-27c-16-26-49-66-11-83 3-1 6-2 9-2 20-2 38 18 23 50-8 15-19 36-21 35z m200 64c24-35 55-78 32-114-29-45-136-27-91 66 9 17 19 33 29 48l15 22c5-8 10-15 15-22z m-15-28c-12-19-31-39-27-61 4-30 74-33 48 24-7 16-20 39-21 37z m-122 206c-7 0-15 0-23 0-5 0-11-1-16-1-4 0-8 0-13-1-3 0-6 0-9-1-27-4-45-25-47-52 0 0 313-1 313-1-3 57-93 56-205 56z"/>
<glyph glyph-name="twitter" unicode="&#101;" d="M350 473c32-1 74-29 74-29 20 5 47 20 47 20 47 18 17-47 17-47l21-21c-15-22-45-48-45-48 0-26-1-28-2-39-25-191-262-332-451-215 0 0-8 5-10 14-8 32 55 13 112 37-11 5-14 8-20 13-14 11-25 25-33 41-7 14-2 30-8 36-21 22-33 52-33 83 0 0 13 16 10 24-23 55 7 143 43 101 40-47 96-78 157-87 0 0 2 30 14 53 20 40 58 65 107 64z m-4-40c-46-1-85-50-74-95 0 0 2-26-29-23-68 5-133 35-183 83 0 0-1-52 34-76 0 0 26-44-30-34 0 0 21-40 57-47 0 0 10-3 14-12 7-17-29-30-29-30 18-21 60-27 60-27 17-3 23-25 2-40-25-19-70-34-70-34 78-22 168-6 231 46 63 51 98 131 95 212 0 0 12 12 1 21-16 11-2 14-26 36-14 13-34 20-53 20z"/>
<glyph glyph-name="calendar" unicode="&#105;" d="M0 21l0 427 85 0 0-43-42 0 0-85 426 0 0 85-42 0 0 43 85 0 0-427z m469 256l-426 0 0-213 426 0z m-170 128l-86 0 0 43 86 0z m-128 0l-43 0 0 86 43 0z m213 0l-43 0 0 86 43 0z"/>
<glyph glyph-name="checked" unicode="&#107;" d="M487 500c9-1 13-9 9-17l-266-458c-4-6-12-7-18-2l-200 210c-8 10 5 27 17 16l189-198c0 0 259 445 259 445 2 2 3 4 10 4z"/>
<glyph glyph-name="minus" unicode="&#111;" d="M486 275c8-1 10-3 13-7 9-11 1-30-15-31l-460 0c-21 1-25 37 0 38 154 0 308 7 462 0z"/>
<glyph glyph-name="plus" unicode="&#113;" d="M235 277l0 209c1 11 10 20 21 19 10-1 17-9 17-19l0-208c71 1 142 0 213-3 20-3 24-37-2-38l-211 0 0-211c-1-21-37-26-38 0l0 211-211 0c-12 1-14 6-17 10-6 11 3 27 17 28 70 0 141 1 211 2z"/>
<glyph glyph-name="pool" unicode="&#114;" d="M489 243c16-1 23-32 0-33-7-74-57-141-125-168l-4-1c0-14 3-30-9-36-10-4-23 4-23 15 0 0 19 9-35 8-38 0-77-3-114 3 0 0 1-18-9-24-10-7-25 1-25 13l0 21c-70 26-122 93-129 169-16 0-23 32 0 33 158 2 315 2 473 0z m-446-27c0 0 2-32 15-60 18-41 54-74 96-90l13-10c16 6 9 3 27 0 41-5 91-5 129 2 0 0 27 7 39 12 55 26 94 81 100 142l0 4c-140 0-280 0-419 0z m445 21c0 0 0 0 0 0z m-471 0c0 0-1 0 0 0z m292 73c22 0 39 18 39 40 0 22-17 40-39 40-22 0-40-18-40-40 0-22 18-40 40-40z m-122 50c22 0 40 18 40 40 0 22-18 40-40 40-22 0-40-18-40-40 0-22 18-40 40-40z m222 66c22 0 40 17 40 39 0 22-18 40-40 40-22 0-40-18-40-40 0-22 18-39 40-39z"/>
<glyph glyph-name="cross" unicode="&#115;" d="M255 314c56 60 114 117 170 176 6 7 10 10 25 10 25-2 38-34 21-54l-175-184c0 0 177-199 177-199 20-27-23-68-49-41l-167 188c-55-64-113-125-169-188-23-24-76 10-48 43l176 197c0 0-177 186-177 186-16 21-5 54 28 52 8-1 15-4 20-10z"/>
<glyph glyph-name="select-down" unicode="&#116;" d="M458 378c24-2 37-35 18-52l-206-185c-11-9-27-9-39 0-67 59-130 123-195 185-23 23 12 70 41 44l174-165c0 0 187 167 187 167 6 4 8 6 20 6z"/>
<glyph glyph-name="info" unicode="&#65;" d="M290 307l0-307-68 0 0 307z m-34 188c28 0 51-23 51-51 0-29-23-51-51-51-28 0-51 22-51 51 0 28 23 51 51 51z"/>
<glyph glyph-name="instagram" unicode="&#108;" d="M351 1l-188 0c-86 0-157 71-157 157l0 188c0 86 71 157 157 157l188 0c86 0 157-71 157-157l0-188c0-86-71-157-157-157z m-188 455c-60 0-110-50-110-110l0-188c0-60 50-110 110-110l188 0c60 0 110 50 110 110l0 188c0 60-50 110-110 110z m100-332c-67 0-122 55-122 122 0 32 13 64 36 87 23 23 54 36 87 36 67 0 122-55 122-123 0-32-13-64-36-86-23-23-54-36-87-36z m0 198c-42 0-76-34-76-76 0-42 34-76 76-76 42 0 77 34 77 76 0 42-35 76-77 76z m141 95c10 0 18-8 18-18 0-10-8-18-18-18-10 0-18 8-18 18 0 10 8 18 18 18"/>
<glyph glyph-name="facebook" unicode="&#109;" d="M449 1l-384 0c-32 0-59 27-59 59l0 384c0 32 27 59 59 59l384 0c32 0 59-27 59-59l0-384c0-32-27-59-59-59z m-112 199l0-159 112 0c11 0 20 8 20 19l0 384c0 11-9 20-20 20l-384 0c-11 0-19-9-19-20l0-384c0-11 8-19 19-19l212 0 0 159-59 0 0 61 59 0 0 42c0 0 0 0 0 0 0 50 40 90 90 90l40 0 0-61-40 0c0 0 0 0-1 0-16 0-29-13-29-28 0-1 0-1 0-1l0-42 71 0-10-61z"/>
<glyph glyph-name="share" unicode="&#99;" d="M344 512c37-1 66-45 49-79-14-29-53-41-81-22l-157-156 154-154c29 23 83 6 89-35 4-26-14-53-40-61-30-9-66 15-70 47 0 8 0 15 3 22l-171 169c-5 6-5 17 0 23l172 170c-1 2-2 4-2 6-8 32 16 67 50 70 2 0 3 0 4 0z m-1-423c-10 0-20-5-26-14 0-1-1-2-1-2-3-5-4-10-4-15 0-17 14-31 31-31 17 0 31 14 31 31 0 17-14 31-31 31z m0 398c-17 0-31-14-31-31 0-17 14-31 31-31 17 0 31 14 31 31 0 0 0 0 0 0 0 17-14 31-31 31z"/>
<glyph glyph-name="wheelchair" unicode="&#104;" d="M402 111c-11 34-22 68-35 102-7 17-23 29-23 29-30 0-59-1-88-1-2 12-3 24-4 36 15-1 30-1 45-1 10 0 15 11 9 18-1 2-2 4-8 5-15 0-31 0-46 0 0 10 0 19 0 28 0 5 0 11 0 16l0 0 2 1 1 0 1 0 1 1 1 0 1 1 2 1 1 0 1 1 1 0 1 1 1 1 1 0 1 1 1 1 2 1 2 2 0 1 2 1 1 1 1 1 0 1 1 1 1 1 0 1 1 1 1 1 0 1 1 1 0 1 1 1 0 1 1 1 0 1 1 1 0 1 1 2 0 1 0 1 0 1 1 2 0 2 0 1 0 1 1 1 0 2 0 1 0 2 0 2 0 1-1 1 0 1 0 1 0 2-1 2 0 1 0 1 0 1-1 2 0 1-1 1 0 1-1 1-1 2 0 1-1 1 0 1-1 1-1 1 0 1-1 1-1 1 0 1-1 1-1 1-1 0-1 1 0 1-1 1-1 1-1 0-1 1-1 1-1 1-1 0-1 1-1 0-1 1-1 1-1 0-1 1-1 0-1 1-1 0-1 1-1 0-1 0-2 1-1 0-1 0-2 1-2 0-1 0-1 0-1 0-1 0-2 0-2 0-1 0-2 0-1 0-1 0-1 0-2 0-2-1-1 0-1 0-1-1-1 0-2 0-1-1-1 0-1-1-2-1-2-1-1 0-1-1-1-1-1 0-1-1-1-1-1-1-1 0-1-1 0-1-1-1-1-1-1 0-1-1 0-1-1-1-1-1-1-1 0-1-1-1 0-1-1-1-1-1 0-1-1-1 0-1-1-1 0-1-1-1 0-1 0-2-1-1 0-1 0-1-1-1 0-1 0-2 0-1 0-1 0-1 0-1 0-2 0-2 0-1 0-2 0-1 0-1 0-1 0-3 1-1 0-1 0-1 1-1 0-2 0-1 1-1 0-1 1-1 0-1 1-1 0-1 1-1 1-1 0-1 1-1 0-1 1-1 1-1 1-1 0-1 1-1 1 0 1-1 1-1 0-1 1-1 1 0 1-1 1-1 1-1 1 0 1-1 2-1 1-1 1 0 2-1 1-1 1 0 1-1 2 0 1 0 1-1 1 0 1 0 1 0c0-6 0-16 0-24 0-7 0-13 0-20-4 0-9 0-13 0-48-1-91-32-107-76-31-84 56-170 134-152 84 19 105 134 74 124-6-3-8-11-8-11 0-19-5-38-16-53-36-52-121-47-153 3-27 42-11 105 31 129 17 10 37 13 58 14 0-23-7-54 18-59 0 0 16 0 27 0 26 0 65 0 65 0 18-37 30-79 42-120 3-8 13-10 19-5 7 6 2 18 2 18z m-174 256l0 0-1 1-1 0 0 1-1 0-1 1 0 0-1 0 0 1-1 0 0 1-1 0 0 1-1 0 0 0 0 1-1 0 0 1-1 0 0 1 0 0-1 1 0 1 0 0-1 2 0 0 0 1-1 0 0 1 0 0 0 1 0 1-1 1 0 0 0 1 0 1 0 0 0 1 0 1 0 0 0 2 0 0 0 1 0 1 0 0 0 1 0 1 0 0 1 1 0 1 0 1 0 0 0 1 1 0 0 1 0 0 0 1 1 0 0 1 0 1 1 0 0 1 0 0 1 1 0 0 0 1 1 0 0 1 0 0 1 0 0 1 1 0 0 1 1 0 0 1 1 0 1 1 0 0 1 0 0 1 1 0 0 0 1 1 0 0 2 1 0 0 1 0 1 0 0 0 1 0 0 1 1 0 1 0 0 0 1 0 0 0 1 0 1 0 2 0 1 0 1 0 0 0 1 0 1 0 0 0 1 0 0-1 1 0 1 0 0 0 1 0 0 0 1-1 2 0 0-1 1 0 0 0 1-1 0 0 1 0 1-1 0 0 1-1 1-1 0 0 0-1 1 0 0 0 1-1 0 0 0-1 1 0 0-1 0 0 1-1 0 0 0-1 1 0 0-2 1-1 0 0 0-1 0 0 0-1 1-1 0 0 0-1 0 0 0-1 0-1 0 0 0-2 0-2 0-1 0-1 0 0 0-1 0-1 0 0 0-1 0 0-1-1 0-1 0 0 0-1 0 0-1-1 0-1 0 0-1-1 0-1-1-1 0 0-1-1 0-1 0 0-1-1 0 0-1 0 0-1 0 0-1-1 0 0-1-1 0 0-1-1-1 0 0 0-1-1-1 0 0-1-1 0 0 0-1 0-1-1 0 0-1 0 0 0-1 0-1-1-1 0 0 0-1 0-1 0 0 0-1 0-1 0-2 0-1 0 0 0-1 0-1 0 0 0-1 0-1 0 0 0-1 1 0 0-1 0-1 0-1 1 0 0z"/>
<glyph glyph-name="splitter" unicode="&#103;" d="M357 256l-174-232-43 33 150 199-150 199 43 33c58-78 116-155 174-232z"/>
<glyph glyph-name="arrow-lft" unicode="&#66;" d="M368 489l-174-233 174-233-29-22-191 255 191 255c10-8 19-15 29-22z"/>
<glyph glyph-name="arrow-rt" unicode="&#67;" d="M364 256l-191-255-29 22 174 233-174 233 29 22c64-85 127-170 191-255z"/>
<glyph glyph-name="cart" unicode="&#110;" d="M436 437c3 0 5-2 5-5l0-40c0-61-49-110-110-110l-105 0c-43 0-80 24-98 59 7-48 49-85 99-85l185 0c3 0 5-2 5-5 0-3-2-5-5-5l-185 0c-61 0-111 49-111 110l-1 31c0 1 0 3 0 4 0 0 0 1 0 1 0 55-45 100-100 100-3 0-5 2-5 5 0 3 2 5 5 5 61 0 110-49 111-109 0 0 0-1 0-1l0-5c2-53 46-95 100-95l105 0c55 0 100 45 100 100l0 35-275 0c-3 0-5 2-5 5 0 3 2 5 5 5z m-254-204c-17 0-30-14-30-31 0-16 13-30 30-30 17 0 30 14 30 30 0 17-13 31-30 31z m0-51c-11 0-20 9-20 20 0 11 9 20 20 20 11 0 20-9 20-20 0-11-9-20-20-20z m209 51c-17 0-30-14-30-31 0-16 13-30 30-30 17 0 30 14 30 30 0 17-13 31-30 31z m0-51c-11 0-20 9-20 20 0 11 9 20 20 20 11 0 20-9 20-20 0-11-9-20-20-20z"/>
<glyph glyph-name="arrow-down" unicode="&#102;" d="M504 329l-248-186-248 186 24 31 224-168 224 168c8-10 16-21 24-31z"/>
<glyph glyph-name="triangle" unicode="&#120;" d="M242 34l-239 477 478 0z"/>
<glyph glyph-name="swiper-next" unicode="&#121;" d="M401 263l-245-245-52 52 194 193-194 194 52 52c81-82 163-164 245-246z"/>
<glyph glyph-name="swiper-prev" unicode="&#122;" d="M404 457l-193-194 193-193-51-52-246 245 246 246c17-18 34-35 51-52z"/>
<glyph glyph-name="play" unicode="&#112;" d="M1 1l508 254-508 254z"/>
<glyph glyph-name="showpassword" unicode="&#71;" d="M487 284c-49 39-131 97-234 99 0 0 0 0 0 0 0 0 0 0 0 0-104-2-186-60-234-99-3-2-19-14-19-30 0-11 5-19 12-26 40-39 127-107 241-107l0-1c0 0 0 0 0 0 0 0 0 0 0 0l0 1c114 0 201 68 240 107 8 7 13 15 13 26 0 16-16 28-19 30z m-234-134c-56 1-101 46-101 102 0 56 45 101 101 101 56 0 101-45 101-101 0-56-45-101-101-102z m0 141c0 0 0 0 0 0 0 0 0 0 0 0l0 0c-22 0-39-18-39-39 0-22 17-39 39-40l0 0c0 0 0 0 0 0 0 0 0 0 0 0l0 0c22 1 39 18 39 40 0 21-17 39-39 39z"/>
<glyph glyph-name="edit" unicode="&#72;" d="M96 151l-53-53 0-55 64 0c11 0 21-10 21-22 0-11-10-21-21-21l-86 0c-11 0-21 10-21 21l0 86c0 5 2 11 6 15l384 384c9 8 22 8 30 0l86-86c8-8 8-21 0-30l-235-234c-8-9-22-9-30 0-8 8-8 21 0 30l220 219-56 55-279-279 70-70c9-8 9-22 0-30-8-8-21-8-30 0z"/>
<glyph glyph-name="detete" unicode="&#73;" d="M43 363l0 64c0 10 7 19 18 21l131 18 0 25c0 11 10 21 21 21l86 0c11 0 21-10 21-21l0-25 131-18c12-2 20-13 18-24-2-12-12-20-24-18l-149 21c-11 1-19 10-19 21l0 21-42 0 0-21c0-11-8-20-19-21l-131-19 0-45 406 0c11 0 21-10 21-22l0-42c0-7-4-14-9-18 0 0-8-5-17-11-24-16-38-43-38-71 0-42 0-92 0-92 0-12-10-22-21-22-12 0-22 10-22 22 0 0 0 50 0 92 0 43 22 83 57 106l7 5 0 10-426 0 0-10 7-5c35-23 57-63 57-106l0-156 320 0c11 0 21-10 21-22 0-11-10-21-21-21l-342 0c-11 0-21 10-21 21l0 178c0 28-14 55-38 71-9 6-17 11-17 11-5 4-9 11-9 18l0 42c0 12 10 22 21 22z m149-107l0-149c0-12 10-22 21-22 12 0 22 10 22 22l0 149c0 12-10 21-22 21-11 0-21-9-21-21z m107 0l0-149c0-12 9-22 21-22 12 0 21 10 21 22l0 149c0 12-9 21-21 21-12 0-21-9-21-21z"/>
<glyph glyph-name="star" unicode="&#74;" d="M256 497l59-184 192 0-155-114 59-184-155 114-155-114 59 184-155 114 192 0z"/>
<glyph glyph-name="persons-1" unicode="&#106;" d="M257 176c-89 0-161 72-161 161 0 89 72 162 161 162 89 0 161-73 161-162 0-89-72-161-161-161m62-2c66 25 113 89 113 163 0 97-79 175-175 175-96 0-175-78-175-175 0-74 47-138 113-163-66-25-113-88-113-163 0-4 3-7 7-7 4 0 6 3 6 7 0 73 50 135 117 155 1 0 2 1 3 2 13-3 27-5 42-5 15 0 29 2 43 5 1-1 2-2 3-2 67-20 115-82 115-155 0-4 3-7 7-7 4 0 7 3 7 7 0 75-47 138-113 163"/>
<glyph glyph-name="persons-1-active" unicode="&#117;" d="M176 165c24-11 51-17 78-17 28 0 55 6 79 17 55-28 94-86 94-153 0-2 0-5-1-7l-344 0c0 2 0 5 0 7 0 67 38 125 94 153z m78 341c96 0 173-78 173-173 0-95-77-172-173-172-95 0-172 77-172 172 0 95 77 173 172 173z"/>
<glyph glyph-name="persons-2" unicode="&#118;" d="M104 169c-58-22-99-78-99-144 0-3 2-6 6-6 3 0 6 3 6 6 0 65 43 119 102 137 1 0 2 1 2 2 13-3 25-5 38-5 13 0 26 2 38 5 0-1 1-2 2-2 60-17 103-72 103-137 0-3 3-6 6-6 3 0 6 3 6 6 0 66-41 122-100 144 58 23 100 79 100 145 0 85-70 154-155 154-85 0-154-69-154-154 0-66 41-122 99-145z m285 21c61-18 106-73 108-141 0-4 2-6 6-6 3 0 6 3 5 6-1 68-42 123-100 147 58 22 99 77 99 144 0 85-70 155-157 155-33 0-62-12-87-29-3-2-3-5-2-8 2-3 6-3 9-2 23 16 50 27 80 27 80 0 145-64 145-143 0-81-65-142-145-142-15 0-29 2-43 6-3 1-6-1-7-4-1-3 1-6 4-7 14-5 30-7 46-7 13 0 26 2 39 4z m-230 266c79 0 143-64 143-142 0-79-64-143-143-143-78 0-142 64-142 143 0 78 64 142 142 142z"/>
<glyph glyph-name="persons-2-active" unicode="&#119;" d="M85 162c22-10 46-16 71-16 26 0 50 6 71 16 51-26 85-79 85-139 0-2 0-5 0-7l-312 0c0 2 0 5 0 7 0 60 35 113 85 139z m164 1c10 9 22 17 34 24 21-9 43-14 67-14 25 0 48 5 69 15 53-25 90-79 90-141 0-3 0-5 0-7l-186 0c-5 51-33 96-74 123z m-93 308c87 0 157-70 157-157 0-86-70-156-157-156-86 0-156 70-156 156 0 87 70 157 156 157z m89-14c28 25 65 40 105 40 86 0 156-70 156-156 0-86-70-156-156-156-25 0-49 6-69 16 27 30 43 70 43 113 0 60-31 113-79 143z"/>
<glyph glyph-name="persons-3" unicode="&#68;" d="M215 193c-42-16-72-57-72-104 0-3 2-5 4-5 3 0 5 2 5 5 0 46 31 86 74 99 0 0 1 1 2 1 8-2 18-3 27-3 9 0 18 1 27 3 1 0 1-1 2-1 43-13 75-52 75-99 0-3 1-5 4-5 2 0 4 2 4 5 0 47-30 88-72 104 42 16 72 57 72 105 0 62-50 112-112 112-62 0-112-50-112-112 0-48 30-89 72-105z m206 16c45-14 78-54 79-103 0-3 2-5 4-5 2 0 4 2 4 5-1 49-31 89-73 107 42 16 72 55 72 104 0 62-51 112-114 112-23 0-44-9-63-21-2-1-2-4-1-6 1-2 4-2 6-1 17 11 36 20 58 20 58 0 106-47 106-104 0-59-48-103-106-103-10 0-21 1-31 4-2 1-4 0-5-3-1-2 1-4 3-5 10-3 22-5 33-5 10 0 19 1 28 4z m-346 4c-42-18-72-58-73-107 0-3 2-5 4-5 2 0 4 2 4 5 1 49 34 89 79 103 9-3 18-4 28-4 11 0 23 2 33 5 2 1 4 3 3 5-1 3-3 4-5 3-10-3-20-4-31-4-58 0-106 44-106 103 0 57 48 104 106 104 22 0 41-9 58-20 2-1 5-1 6 1 1 2 1 5-1 6-18 12-40 21-63 21-63 0-114-50-114-112 0-49 30-88 72-104z m180 188c57 0 103-46 103-103 0-57-46-104-103-104-57 0-103 47-103 104 0 57 46 103 103 103z"/>
<glyph glyph-name="persons-3-active" unicode="&#69;" d="M204 188c16-7 33-11 51-11 18 0 35 4 51 11 36-18 61-56 61-99 0-2 0-3 0-5l-224 0c0 2 0 3 0 5 0 43 25 81 61 99z m240 19c37-18 64-57 64-101 0-2 0-3 0-5l-133 0c-4 37-24 69-54 88 8 7 17 13 26 17 15-6 31-9 48-9 17 0 34 3 49 10z m-378 0c-38-18-64-57-64-101 0-2 0-3 0-5l133 0c4 37 24 69 54 88-8 7-17 13-26 17-15-6-31-9-48-9-17 0-34 3-49 10z m189 203c62 0 112-51 112-112 0-62-50-112-112-112-62 0-112 50-112 112 0 61 50 112 112 112z m64-10c20 18 46 29 76 29 61 0 112-50 112-112 0-62-51-112-112-112-18 0-35 4-50 12 19 21 31 50 31 81 0 43-23 80-57 102z m-153-183c-20 21-31 50-31 81 0 43 22 80 56 102-20 18-46 29-76 29-61 0-112-50-112-112 0-62 51-112 112-112 18 0 36 4 51 12z"/>
<glyph glyph-name="persons-4" unicode="&#70;" d="M278 206c-34-13-57-45-57-83 0-2 1-3 3-3 2 0 3 1 3 3 0 37 25 69 59 79 1 0 1 0 2 1 7-2 14-3 22-3 7 0 14 1 21 3 0-1 1-1 2-1 34-10 59-42 59-79 0-2 1-3 3-3 2 0 4 1 4 3 0 38-24 70-58 83 34 13 58 45 58 83 0 49-40 89-89 89-50 0-89-40-89-89 0-38 23-70 57-83z m-220 0c-34-13-58-45-58-83 0-2 2-3 4-3 2 0 3 1 3 3 0 37 25 69 59 79 1 0 1 0 2 1 7-2 14-3 22-3 7 0 14 1 21 3 0-1 1-1 2-1 34-10 59-42 59-79 0-2 1-3 3-3 2 0 4 1 4 3 0 38-24 70-58 83 34 13 57 45 57 83 0 49-39 89-88 89-50 0-89-40-89-89 0-38 23-70 57-83z m384 12c35-11 61-42 62-82 0-1 2-3 3-3 2 0 4 2 4 4-1 39-25 71-58 85 33 12 57 44 57 83 0 49-41 89-91 89-18 0-35-7-50-17-1-1-2-3-1-5 1-1 4-2 5-1 14 9 29 16 46 16 47 0 84-37 84-82 0-48-37-83-84-83-8 0-16 2-24 4-2 1-4 0-4-2-1-2 0-4 2-5 8-2 17-3 26-3 8 0 16 1 23 2z m-132 153c45 0 82-36 82-82 0-45-37-82-82-82-46 0-83 37-83 82 0 46 37 82 83 82z m-220 0c45 0 82-36 82-82 0-45-37-82-82-82-46 0-83 37-83 82 0 46 37 82 83 82z m80-151c9-3 19-4 30-4 9 0 18 1 26 3 2 1 3 3 3 5-1 2-3 3-5 2-7-2-16-4-24-4-10 0-19 2-28 5-1 0-3-1-4-2-1-2 0-4 2-5z m80 157c-15 10-32 17-50 17-20 0-38-7-53-17-1-1-2-3-1-5 1-1 4-2 5-1 14 10 31 16 49 16 17 0 33-7 46-16 2-1 4 0 5 1 1 2 0 4-1 5z"/>
<glyph glyph-name="persons-4-active" unicode="&#75;" d="M49 202c12-5 26-9 40-9 15 0 29 4 41 9 29-14 48-44 48-79 0-1 0-2 0-4l-178 0c0 2 0 3 0 4 0 35 20 65 49 79z m221 0c12-5 26-9 40-9 15 0 28 4 40 9 29-14 49-44 49-79 0-1 0-2 0-4l-178 0c0 2 0 3 0 4 0 35 20 65 49 79z m93 1c6 5 13 10 20 14 12-5 24-8 38-8 14 0 27 3 39 8 30-14 51-45 51-80 0-2 0-3 0-4l-106 0c-3 29-19 55-42 70z m-223 1c25-15 41-41 45-71l30 0c3 29 19 55 42 70-6 5-13 10-20 14-12-5-24-8-38-8-14 0-27 3-39 8-7-3-14-8-20-13z m-51 174c50 0 89-40 89-89 0-49-39-89-89-89-49 0-89 40-89 89 0 49 40 89 89 89z m221 0c49 0 89-40 89-89 0-49-40-89-89-89-49 0-89 40-89 89 0 49 40 89 89 89z m51-8c16 15 37 24 60 24 49 0 89-40 89-89 0-50-40-89-89-89-14 0-28 3-40 9 16 17 25 39 25 64 0 34-18 64-45 81z m-221 1c27-17 45-47 45-82 0-25-9-47-25-64 12-6 25-9 39-9 14 0 28 3 40 9-15 17-25 40-25 64 0 34 18 64 45 81-16 15-37 24-60 24-23 0-44-9-59-23z"/>
<glyph glyph-name="mail" unicode="&#76;" d="M445 448l-394 0c-28 0-51-23-51-51l0-282c0-28 23-51 51-51l394 0c28 0 52 23 52 51l0 282c0 28-24 51-52 51z m-32-46l-165-118-164 118z m37-292l-404 0 0 262 189-135c8-6 19-6 27 0l188 135z"/>
<glyph glyph-name="qr" unicode="&#77;" d="M142 128c0 8-6 14-14 14l-114 0c-8 0-14-6-14-14l0-114c0-8 6-14 14-14l114 0c4 0 7 2 10 4 3 3 4 6 4 10z m57-85l0-29c0-8 6-14 14-14 8 0 15 6 15 14l0 29c0 8-7 14-15 14-8 0-14-6-14-14z m313-29l0 86c0 3-2 7-4 10-3 2-6 4-10 4l-114 0c-8 0-14-7-14-14l0-86c0-8 6-14 14-14 8 0 14 6 14 14l0 71c0 0 86 0 86 0 0 0 0-71 0-71 0-8 6-14 14-14 8 0 14 6 14 14z m-85 256l0 29c0 8-7 14-15 14l-113 0c-8 0-15-6-15-14l0-71c0 0-69 0-69 0-8 0-14-7-15-14l-1-86c0-4 2-7 4-10 3-3 7-4 10-4l71 0c0 0 0-100 0-100 0-8 7-14 15-14 8 0 14 6 14 14l0 114c0 8-6 14-14 14l-71 0c0 0 1 57 1 57 0 0 70 0 70 0 8 0 14 6 14 14l0 71c0 0 85 0 85 0 0 0 0-14 0-14 0-8 7-14 14-14 8 0 15 6 15 14z m-313-156l0-86c0 0-86 0-86 0 0 0 0 86 0 86z m370 186l0-101c0 0-96 0-96 0-8 0-14-6-14-14 0-8 6-14 14-14l110 0c8 0 14 6 14 14l0 115c0 8-6 14-14 14-8 0-14-6-14-14z m-384-101l28 0c8 0 14 6 14 14 0 8-6 15-14 15l-28 0c-8 0-15-7-15-15 0-8 7-14 15-14z m112 114l-198 0c-8 0-14-6-14-14l0-86c0-8 6-14 14-14 8 0 14 6 14 14l0 71c0 0 184 0 184 0 8 0 14 7 14 15 0 8-6 14-14 14z m172 199c-8 0-14-6-14-14l0-114c0-8 6-14 14-14l114 0c8 0 14 6 14 14l0 114c0 4-2 7-4 10-3 2-6 4-10 4z m-370 0c-8 0-14-6-14-14l0-114c0-8 6-14 14-14l114 0c4 0 7 1 10 4 3 3 4 6 4 10l0 114c0 8-6 14-14 14z m214-128l0 100c0 0 71 0 71 0 8 0 14 6 14 14 0 8-6 14-14 14l-86 0c-8 0-14-6-14-14l0-114c0-8 6-14 14-14 8 0 15 6 15 14z m56 28l0-28c0-8 7-14 15-14 8 0 14 6 14 14l0 28c0 8-6 15-14 15-8 0-15-7-15-15z m114 72l86 0c0 0 0-86 0-86 0 0-86 0-86 0z m-370 0l86 0c0 0 0-86 0-86 0 0-86 0-86 0z"/>
</font>
</defs>
</svg>
